<svg xmlns="http://www.w3.org/2000/svg" xmlns:xlink="http://www.w3.org/1999/xlink" width="122" height="46" viewBox="0 0 122 46">
    <defs>
        <path id="4pyiypuiva" d="M0 0.057L58.878 0.057 58.878 46 0 46z"/>
    </defs>
    <g fill="none" fill-rule="evenodd">
        <g>
            <g>
                <g>
                    <g transform="translate(-124 -4936) translate(36 4853) translate(88 83)">
                        <mask id="fft4k58alb" fill="#fff">
                            <use xlink:href="#4pyiypuiva"/>
                        </mask>
                        <path fill="#FFDD30" d="M41.208 44.463c0-1.896 2.172-1.896 3.693-5.76l3.693-8.605-5.576-12.25c-1.014-2.187-1.738-2.916-3.259-2.916v-.948h8.618v.948c-2.172 0-2.607.51-1.52 2.917l3.548 7.875 3.114-7.875c.869-2.261.58-2.917-1.448-2.917v-.948h6.807v.948c-1.52 0-2.607.656-3.476 2.917L44.684 44.172c-.363.947-1.014 1.822-1.81 1.822-.87.073-1.594-.582-1.666-1.458v-.073zM22.595 29.296c3.187 0 3.838-.801 3.838-5.76v-2.479c0-4.885-.651-5.687-3.838-5.687v-1.021l6.518-1.24c.362 1.167.652 2.334.797 3.5.941-1.968 3.114-3.5 5.07-3.5 2.679 0 3.838 1.823 3.838 3.062 0 1.094-.435 2.334-1.956 2.334-.941 0-1.665-.802-1.665-1.75.072-.802-.507-1.531-1.304-1.604h-.29c-1.159 0-3.765 1.823-3.765 5.76v2.698c0 4.885.579 5.76 3.838 5.76v1.021H22.523v-1.094h.072zm-8.183-3.937v-6.344c-.87-2.333-2.752-3.864-4.925-3.864-3.766 0-5.576 3.062-5.576 7 0 3.937 1.738 7.072 5.576 7.072 2.245 0 4.056-1.603 4.925-3.864zM0 22.151c0-4.959 3.838-8.97 8.473-8.97 2.318 0 4.49 1.095 5.939 2.918v-8.02c0-4.887-.58-5.762-3.839-5.762v-1.02l7.315-1.24v23.114c0 4.886.652 5.761 3.838 5.761v1.02l-6.446 1.24c-.361-.947-.579-1.968-.796-2.99-1.448 1.896-3.621 2.99-6.01 2.99C3.837 31.192 0 27.11 0 22.151z" mask="url(#fft4k58alb)"/>
                    </g>
                    <path fill="#C6C8C8" d="M119.711 13.222h-.443v1.215h.443c.37 0 .591-.303.591-.608 0-.303-.296-.607-.59-.607zm.738 2.811l-.96-1.291h-.22v.38c0 .683.073.835.516.835v.152h-1.55v-.076c.442 0 .59-.152.59-.836v-1.14c0-.683-.074-.835-.59-.835v-.152h1.476c.664 0 1.034.38 1.034.911 0 .456-.37.837-.812.837l.442.532c.222.303.591.607.96.683.739-.988.591-2.431-.369-3.191-.96-.76-2.363-.608-3.101.38s-.59 2.431.37 3.191c.368.304.885.532 1.402.532.591 0 1.182-.228 1.625-.684l-.813-.228zm1.551-1.52c0 1.368-1.107 2.508-2.437 2.508-1.329 0-2.436-1.14-2.436-2.508 0-1.367 1.107-2.507 2.436-2.507 1.403 0 2.437 1.14 2.437 2.507zM99.11 30.47c3.249 0 3.913-.835 3.913-6.002v-2.584c0-5.09-.664-5.927-3.914-5.927v-1.064l6.572-1.291c.37 1.215.665 2.431.813 3.647.96-2.052 3.249-3.647 5.242-3.647 2.732 0 3.914 1.9 3.914 3.191 0 1.14-.443 2.432-1.994 2.432-.96 0-1.772-.837-1.772-1.824.074-.836-.517-1.596-1.33-1.672h-.295c-1.18 0-3.84 1.9-3.84 6.003v2.812c0 5.09.592 6.002 3.914 6.002v1.064H98.962l.147-1.14zm-7.458-2.962v-5.244c-4.726 1.14-6.868 2.812-6.868 5.091-.074 1.368.886 2.508 2.142 2.584h.148c1.107 0 2.289-.38 4.578-2.431zm-10.633.455c0-4.331 4.947-6.23 10.559-7.294 0-3.8-.517-5.396-3.323-5.396-1.108 0-2.806.836-2.806 2.432.074.988-.665 1.824-1.625 1.9-.96.075-1.772-.684-1.846-1.672v-.228c0-2.432 3.102-4.103 6.351-4.103 4.8 0 6.793 2.127 6.793 6.99v7.751c0 1.292.37 1.976 1.182 1.976.517-.076 1.033-.38 1.403-.76l.664.987c-.812.989-1.993 1.52-3.249 1.596-1.698.152-3.249-1.215-3.396-2.963-2.437 2.28-4.21 3.04-6.203 3.04-2.437 0-4.504-1.596-4.504-4.256zm-5.317-4.939c0-4.103-1.772-7.295-5.686-7.295-2.289 0-4.135 1.596-5.021 4.027v6.536c.886 2.431 2.732 4.103 5.021 4.103 3.914 0 5.686-3.268 5.686-7.371zM61.525 8.359c0-5.091-.665-6.004-3.914-6.004V1.292L65.07 0v16.641c1.477-1.9 3.692-3.04 6.055-3.04 4.726 0 8.64 4.18 8.64 9.347s-3.914 9.422-8.64 9.422c-2.51 0-4.947-1.291-6.35-3.419l-2.216 3.42h-1.033V8.358z" transform="translate(-124 -4936) translate(36 4853) translate(88 83)"/>
                </g>
            </g>
        </g>
    </g>
</svg>
