<?xml version="1.0" encoding="utf-8"?>
<!-- Generator: Adobe Illustrator 27.4.1, SVG Export Plug-In . SVG Version: 6.00 Build 0)  -->
<svg version="1.1" id="Layer_1" xmlns="http://www.w3.org/2000/svg" xmlns:xlink="http://www.w3.org/1999/xlink" x="0px" y="0px"
	 viewBox="0 0 234.14 89.9" style="enable-background:new 0 0 234.14 89.9;" xml:space="preserve">
<style type="text/css">
	.st0{fill:#FFDD30;}
	.st1{opacity:0.3;}
	.st2{fill:#42413D;}
</style>
<g>
	<path class="st0" d="M22.39,54.37c0-5.58,4.37-10.12,9.62-10.12c2.76,0,5.09,1.22,6.74,3.26v-9.01c0-5.53-0.66-6.47-4.37-6.47
		v-1.16l8.29-1.38v26.03c0,5.53,0.71,6.47,4.37,6.47v1.16l-7.35,1.38c-0.28-0.55-0.72-2.48-0.89-3.37c-1.55,1.94-3.76,3.37-6.8,3.37
		C26.76,64.54,22.39,59.95,22.39,54.37z M38.75,57.97v-7.13c-0.99-2.6-3.09-4.37-5.58-4.37c-4.31,0-6.3,3.48-6.3,7.9
		c0,4.42,1.99,7.96,6.3,7.96C35.66,62.33,37.76,60.56,38.75,57.97z"/>
	<path class="st0" d="M47.99,62.44c3.65,0,4.36-0.94,4.36-6.46v-2.77c0-5.53-0.72-6.41-4.36-6.41v-1.16l7.35-1.39
		c0.28,0.56,0.77,2.82,0.94,3.98c1.11-2.21,3.59-3.98,5.81-3.98c3.04,0,4.36,2.05,4.36,3.43c0,1.22-0.5,2.6-2.21,2.6
		c-1.05,0-1.93-0.94-1.93-1.99c0-1.16-0.67-1.82-1.77-1.82c-1.27,0-4.26,2.04-4.26,6.46v3.04c0,5.53,0.66,6.46,4.37,6.46v1.16H47.99
		V62.44z"/>
	<path class="st0" d="M69.09,79.47c0-2.16,2.49-2.16,4.2-6.47l4.22-9.68l-6.35-13.76c-1.16-2.49-1.99-3.26-3.71-3.26V45.2h9.78v1.11
		c-2.43,0-2.98,0.55-1.77,3.26l4.04,8.84l3.53-8.84c0.99-2.55,0.67-3.26-1.61-3.26V45.2h7.74v1.11c-1.71,0-2.93,0.77-3.92,3.26
		L73.02,79.25c-0.44,1.11-1.16,2.05-2.05,2.05C70.2,81.29,69.09,80.86,69.09,79.47z"/>
</g>
<g class="st1">
	<path class="st2" d="M91.1,38.51c0-5.53-0.72-6.47-4.37-6.47v-1.16l8.29-1.38v18.02c1.65-2.04,3.97-3.26,6.74-3.26
		c5.25,0,9.56,4.53,9.56,10.12c0,5.58-4.31,10.17-9.56,10.17c-2.93,0-5.48-1.43-7.07-3.7l-2.43,3.7H91.1V38.51z M106.91,54.37
		c0-4.42-1.99-7.9-6.29-7.9c-2.55,0-4.59,1.77-5.58,4.37v7.08c0.99,2.65,3.04,4.42,5.58,4.42
		C104.92,62.33,106.91,58.79,106.91,54.37z"/>
	<path class="st2" d="M112.83,59.68c0-4.7,5.47-6.74,11.77-7.85c0-4.15-0.56-5.8-3.71-5.8c-1.26,0-3.14,0.88-3.14,2.65
		c0,1.11-0.83,1.94-1.89,1.94c-1.1,0-1.93-0.83-1.93-1.94c0-2.65,3.49-4.42,7.02-4.42c5.36,0,7.57,2.27,7.57,7.52v8.34
		c0,1.38,0.44,2.16,1.28,2.16c0.55,0,1.15-0.44,1.54-0.83l0.77,1.05c-1.04,1.11-2.43,1.71-3.65,1.71c-2.15,0-3.48-1.22-3.76-3.21
		c-2.7,2.43-4.69,3.32-6.91,3.32C115.09,64.32,112.83,62.61,112.83,59.68z M124.6,59.18v-5.64c-5.25,1.22-7.63,3.04-7.63,5.48
		c0,1.77,1.22,2.82,2.6,2.82C120.73,61.84,122.06,61.45,124.6,59.18z"/>
	<path class="st2" d="M132.9,62.44c3.65,0,4.36-0.94,4.36-6.46v-2.77c0-5.53-0.71-6.41-4.36-6.41v-1.16l7.35-1.39
		c0.27,0.56,0.77,2.82,0.94,3.98c1.1-2.21,3.59-3.98,5.8-3.98c3.04,0,4.37,2.05,4.37,3.43c0,1.22-0.5,2.6-2.21,2.6
		c-1.05,0-1.93-0.94-1.93-1.99c0-1.16-0.67-1.82-1.77-1.82c-1.27,0-4.26,2.04-4.26,6.46v3.04c0,5.53,0.66,6.46,4.37,6.46v1.16H132.9
		V62.44z"/>
	<g>
		<path class="st2" d="M158.43,45.23c0,1.49-1.2,2.7-2.69,2.7c-1.49,0-2.7-1.21-2.7-2.7c0-1.49,1.21-2.7,2.7-2.7
			C157.23,42.53,158.43,43.74,158.43,45.23z M156.66,46.89l-1.07-1.43h-0.27v0.38c0,0.77,0.1,0.89,0.61,0.89v0.15h-1.72v-0.15
			c0.51,0,0.61-0.13,0.61-0.89v-1.23c0-0.77-0.1-0.89-0.61-0.89v-0.15h1.66c0.71,0,1.15,0.41,1.15,0.95c0,0.47-0.35,0.85-0.93,0.93
			l0.49,0.56c0.31,0.37,0.72,0.72,1.06,0.72c0.33-0.42,0.53-0.94,0.53-1.51c0-1.35-1.09-2.43-2.43-2.43c-1.35,0-2.43,1.08-2.43,2.43
			c0,1.34,1.08,2.43,2.43,2.43c0.69,0,1.33-0.3,1.77-0.77H156.66z M155.83,43.85h-0.5v1.34h0.5c0.44,0,0.64-0.31,0.64-0.66
			C156.47,44.16,156.27,43.85,155.83,43.85z"/>
	</g>
</g>
<g>
	<g>
		<g id="Buttercup_00000022560710400628982150000011447817225256370085_">
			<path id="Buttercup_00000183251352632812239200000009160909393926407080_" class="st0" d="M204.18,50.03
				c-0.74-0.52-3.67-1.85-3.67-1.85l-0.35,0.13c0,0-0.13,0-0.99-0.26c-0.86-0.26-1.81-1.85-2.55-3.32
				c-0.73-1.46-0.73-3.96-0.73-7.28c0-3.32-0.78-6.33-1.12-7.84c-0.35-1.5-1.61-2.95-1.61-2.95v-182.55h-1.29V24.07l-0.31,2.53
				c0,0-0.22,0.22-1.17,2.15c-0.95,1.94-0.67,4.07-0.67,4.07s-0.34-0.04-0.34,0.28c0,0.65,0.39,3.91,0.39,3.91s-0.07,0.16-0.07,0.32
				c0,0.16,0.16,0.23,0.16,0.23s0.33,1.81,0.39,2.2c0.07,0.39,0.29,0.33,0.29,0.33l0.55,3.68c0,0-0.16,0-0.9,0.03
				c-0.75,0.03-0.55,0.45-0.33,0.71c0.23,0.26,0.36,1.07,0.16,1.42c-0.19,0.35,0.65,0.26,0.65,0.26c-0.39,1.55-3.3,2.36-3.3,2.36
				l-0.45,0.33c-3.88,0.77-18.65,1.03-18.65,1.03c-0.52,2.71-0.65,5.82-0.26,9.43c3.28,0.34,17.06,1.29,19.21,1.51
				c-0.09,0.04,0.22,0.3,0.22,0.3c1.08,0.48,4.18,0.99,6.95,0.99c2.76,0,5.48-0.82,7.9-1.81c1.55-0.64,4.83-2.41,4.83-5.47
				C207.12,51.8,204.92,50.55,204.18,50.03z"/>
		</g>
	</g>
	<g>
		<path class="st0" d="M213.25,59.63c0,1.49-1.2,2.7-2.69,2.7c-1.49,0-2.7-1.21-2.7-2.7c0-1.49,1.21-2.7,2.7-2.7
			C212.05,56.93,213.25,58.14,213.25,59.63z M211.48,61.29l-1.07-1.43h-0.27v0.38c0,0.77,0.1,0.89,0.61,0.89v0.15h-1.72v-0.15
			c0.51,0,0.61-0.13,0.61-0.89v-1.23c0-0.77-0.1-0.89-0.61-0.89v-0.15h1.66c0.71,0,1.15,0.41,1.15,0.95c0,0.47-0.35,0.85-0.93,0.93
			l0.49,0.56c0.31,0.37,0.72,0.72,1.06,0.72c0.33-0.42,0.53-0.94,0.53-1.51c0-1.35-1.09-2.43-2.43-2.43c-1.35,0-2.43,1.08-2.43,2.43
			c0,1.34,1.08,2.43,2.43,2.43c0.69,0,1.33-0.3,1.77-0.77H211.48z M210.66,58.25h-0.5v1.34h0.5c0.44,0,0.64-0.31,0.64-0.66
			C211.29,58.56,211.09,58.25,210.66,58.25z"/>
	</g>
</g>
</svg>
