<?xml version="1.0" encoding="UTF-8"?>
<svg width="30px" height="31px" viewBox="0 0 30 31" version="1.1" xmlns="http://www.w3.org/2000/svg" xmlns:xlink="http://www.w3.org/1999/xlink">
    <title>-g- My Account</title>
    <defs>
        <path d="M14.8111111,0.618622222 C6.63193333,0.618622222 0,7.24917778 0,15.4297333 L0,15.4297333 C0,23.6096 6.63193333,30.2408444 14.8111111,30.2408444 L14.8111111,30.2408444 C22.9909778,30.2408444 29.6222222,23.6096 29.6222222,15.4297333 L29.6222222,15.4297333 C29.6222222,7.24917778 22.9909778,0.618622222 14.8111111,0.618622222 Z" id="path-1"></path>
        <path d="M14.8111111,0.618622222 C6.63193333,0.618622222 0,7.24917778 0,15.4297333 L0,15.4297333 C0,23.6096 6.63193333,30.2408444 14.8111111,30.2408444 L14.8111111,30.2408444 C22.9909778,30.2408444 29.6222222,23.6096 29.6222222,15.4297333 L29.6222222,15.4297333 C29.6222222,7.24917778 22.9909778,0.618622222 14.8111111,0.618622222 Z" id="path-3"></path>
    </defs>
    <g id="Symbols" stroke="none" stroke-width="1" fill="none" fill-rule="evenodd">
        <g id="Drybar-Holdings-Header" transform="translate(-1266.000000, -1.000000)">
            <g id="Shop-Header" transform="translate(0.000000, -1.000000)">
                <g id="-g--My-Account" transform="translate(1266.000000, 2.000000)">
                    <g id="Group-3" transform="translate(0.000000, 0.070473)">
                        <mask id="mask-2" fill="white">
                            <use xlink:href="#path-1"></use>
                        </mask>
                        <g id="Clip-2"></g>
                        <path d="M23.5746044,31.4758844 C23.5746044,36.7293511 19.6513822,40.98944 14.8112489,40.98944 C9.97111556,40.98944 6.04789333,36.7293511 6.04789333,31.4758844 C6.04789333,26.2224178 6.82564889,21.9630178 14.8112489,21.9630178 C22.7968489,21.9630178 23.5746044,26.2224178 23.5746044,31.4758844 Z" id="Stroke-1" stroke="#231F20" mask="url(#mask-2)"></path>
                    </g>
                    <g id="Group-6" transform="translate(0.000000, 0.070473)">
                        <mask id="mask-4" fill="white">
                            <use xlink:href="#path-3"></use>
                        </mask>
                        <g id="Clip-5"></g>
                        <path d="M19.0416467,14.39392 C19.0416467,16.9986089 17.1472022,19.1100533 14.81118,19.1100533 C12.4751578,19.1100533 10.5814022,16.9986089 10.5814022,14.39392 C10.5814022,11.7892311 12.4751578,9.67709778 14.81118,9.67709778 C17.1472022,9.67709778 19.0416467,11.7892311 19.0416467,14.39392 Z" id="Stroke-4" stroke="#231F20" mask="url(#mask-4)"></path>
                    </g>
                </g>
            </g>
        </g>
    </g>
</svg>