<?xml version="1.0" standalone="no"?>
<!DOCTYPE svg PUBLIC "-//W3C//DTD SVG 20010904//EN"
 "http://www.w3.org/TR/2001/REC-SVG-20010904/DTD/svg10.dtd">
<svg version="1.0" xmlns="http://www.w3.org/2000/svg"
 width="36.000000pt" height="48.000000pt" viewBox="0 0 36.000000 48.000000"
 preserveAspectRatio="xMidYMid meet">

<g transform="translate(0.000000,48.000000) scale(0.100000,-0.100000)"
fill="#000000" stroke="none">
<path d="M132 437 c-12 -13 -22 -35 -22 -50 0 -25 -3 -27 -45 -27 l-45 0 0
-175 0 -175 165 0 165 0 0 175 0 175 -44 0 c-42 0 -45 2 -51 33 -4 17 -14 40
-23 50 -22 25 -74 22 -100 -6z m88 -7 c11 -11 20 -31 20 -45 0 -24 -3 -25 -55
-25 -54 0 -55 0 -55 29 0 20 8 35 22 45 30 21 44 20 68 -4z m-112 -127 c-2
-22 2 -38 10 -41 8 -2 12 9 12 37 l0 41 56 0 56 0 -4 -37 c-2 -22 2 -38 10
-40 8 -3 12 8 12 36 0 40 1 41 35 41 l35 0 0 -155 0 -155 -150 0 -150 0 0 155
0 155 41 0 41 0 -4 -37z"/>
</g>
</svg>
